<svg aria-hidden="true" style="width:0;height:0;position:absolute;overflow:hidden" xmlns="http://www.w3.org/2000/svg"><defs><symbol id="icon-facebook-svgrepo-com" viewBox="0 0 32 32"><path d="M26.667 1.333H5.334a4 4 0 0 0-4 4v21.333a4 4 0 0 0 4 4h21.333a4 4 0 0 0 4-4V5.333a4 4 0 0 0-4-4zm0 2.667C27.403 4 28 4.597 28 5.333v21.333c0 .736-.597 1.333-1.333 1.333H20v-9.333h2.768c.574 0 1.083-.367 1.265-.912l.591-1.772a1 1 0 0 0-.949-1.316H20v-2.667c0-.667.667-1.333 1.333-1.333H24c.736 0 1.333-.597 1.333-1.333v-.915a.946.946 0 0 0-.692-.927c-1.748-.461-3.308-.461-3.308-.461C18 7.03 16 9.333 16 11.333v3.333h-2.667c-.736 0-1.333.597-1.333 1.333v1.333c0 .736.597 1.333 1.333 1.333H16v9.333H5.333A1.333 1.333 0 0 1 4 26.665V5.332c0-.736.597-1.333 1.333-1.333h21.333z"/></symbol><symbol id="icon-instagram-svgrepo-com" viewBox="0 0 32 32"><path d="M16 24a8 8 0 1 1 0-16 8 8 0 0 1 0 16zm0-2.667a5.333 5.333 0 1 0 0-10.667 5.333 5.333 0 0 0 0 10.667zM24 6.667a1.333 1.333 0 1 0 0 2.667 1.333 1.333 0 0 0 0-2.667z"/><path d="M2.205 5.701a8.003 8.003 0 0 1 3.496-3.496c1.711-.872 3.951-.872 8.432-.872h3.733c4.48 0 6.721 0 8.432.872a8.003 8.003 0 0 1 3.496 3.496c.872 1.711.872 3.951.872 8.432v3.733c0 4.48 0 6.721-.872 8.432a8.003 8.003 0 0 1-3.496 3.496c-1.711.872-3.951.872-8.432.872h-3.733c-4.48 0-6.721 0-8.432-.872a8.003 8.003 0 0 1-3.496-3.496c-.872-1.711-.872-3.951-.872-8.432v-3.733c0-4.48 0-6.721.872-8.432zM17.867 4h-3.733c-2.284 0-3.837.002-5.037.1-1.169.096-1.767.269-2.184.481a5.331 5.331 0 0 0-2.331 2.331c-.213.417-.386 1.015-.481 2.184-.098 1.2-.1 2.753-.1 5.037v3.733c0 2.284.002 3.837.1 5.037.096 1.169.269 1.767.481 2.184a5.337 5.337 0 0 0 2.331 2.331c.417.213 1.015.386 2.184.481 1.2.098 2.753.1 5.037.1h3.733c2.284 0 3.837-.002 5.037-.1 1.169-.095 1.767-.269 2.184-.481a5.337 5.337 0 0 0 2.331-2.331c.213-.417.386-1.015.481-2.184.098-1.2.1-2.753.1-5.037v-3.733c0-2.284-.002-3.837-.1-5.037-.095-1.169-.269-1.767-.481-2.184a5.331 5.331 0 0 0-2.331-2.331c-.417-.213-1.015-.386-2.184-.481-1.2-.098-2.753-.1-5.037-.1z"/></symbol><symbol id="icon-snapchat-snap-chat-svgrepo-com" viewBox="0 0 32 32"><path stroke-linejoin="round" stroke-linecap="round" stroke-miterlimit="10" stroke-width="2" d="M23 31H9c-4.4 0-8-3.6-8-8V9c0-4.4 3.6-8 8-8h14c4.4 0 8 3.6 8 8v14c0 4.4-3.6 8-8 8z"/><path stroke-linejoin="round" stroke-linecap="round" stroke-miterlimit="10" stroke-width="2" d="M16 5c-1.1 0-1.7.1-2.8.6-1.8.8-2.9 2.3-3.1 4.3-.1 1.1 0 2.3 0 3.4 0 .4-.2.6-.6.4-.2-.1-.4-.2-.5-.2l-1.2-.3c-.3 0-.6.1-.7.4s-.1.6.1.8c.2.2.4.4.6.5.5.4 1 .7 1.5 1 .4.3.5.7.4 1.2-.2 1-.7 1.9-1.3 2.6-.9 1-1.9 1.7-3.1 2.3-.4.2-.4.4 0 .6l1.5.6c.5.2 1.1.2 1.2.9.1.8.3.7.9.8h.5c1.1 0 2.2.3 3.2.9.6.4 1.2.7 1.8.9 1.6.5 3.2.3 4.6-.7 1.1-.8 2.4-1.1 3.7-1.1.2 0 .4-.1.7-.1.4 0 .5-.2.6-.6 0-.5.3-.7.7-.9.7-.2 1.3-.5 2-.8.1 0 .3-.2.3-.3s-.2-.2-.3-.3c-.6-.4-1.3-.7-1.9-1.2-1.2-.9-2.1-2.1-2.6-3.5-.2-.6-.1-.9.4-1.3.2-.2.5-.3.7-.5.5-.3.9-.7 1.4-1 .2-.2.3-.5.2-.8s-.4-.4-.6-.4c-.3 0-.5.1-.8.1-.4.1-.7.3-1 .4s-.6-.1-.5-.4c.1-1.2.1-2.4 0-3.5s-.6-2.1-1.3-2.9C19.3 5.6 17.8 5 16 5z"/></symbol><symbol id="icon-tumblr-svgrepo-com" viewBox="0 0 32 32"><path stroke-linejoin="round" stroke-linecap="round" stroke-miterlimit="10" stroke-width="2" d="M23 31H9c-4.4 0-8-3.6-8-8V9c0-4.4 3.6-8 8-8h14c4.4 0 8 3.6 8 8v14c0 4.4-3.6 8-8 8z"/><path stroke-linejoin="round" stroke-linecap="round" stroke-miterlimit="10" stroke-width="2" d="m21.9 25.7-1-3.1c-.4.2-1.2.4-1.7.4-1.7 0-2.2-1-2.2-2v-7h4v-4h-4V5h-3c-.1 0-.1 0-.2.2-.2 1.7-1.5 4.7-4.8 5.9V14h3v7c0 2.5 1.5 6.1 6.2 6 1.6 0 3.3-.7 3.7-1.3z"/></symbol><symbol id="icon-viber-chat-app-svgrepo-com" viewBox="0 0 32 32"><path stroke-linejoin="round" stroke-linecap="round" stroke-miterlimit="10" stroke-width="2" d="M21.7 20.1c.3-.9.3-1.6.2-1.8s-.3-.2-.7-.4c-.4-.2-2.2-1.1-2.5-1.2s-.7-.1-.9.3c-.4.5-.7 1-1 1.3-.2.2-.6.3-.9.1-.4-.2-1.6-.6-3-1.8-1.1-1-1.8-2.2-2.1-2.6-.2-.4 0-.6.2-.8l.6-.6c.2-.2.3-.3.4-.6.1-.2 0-.5-.1-.7s-.8-2-1.1-2.7c-.2-.5-.4-.5-.8-.5-.1-.1-.3-.1-.4-.1-.5 0-1 .1-1.3.5-.4.4-1.3 1.3-1.3 3.1s1.3 3.6 1.5 3.8c.2.2 2.6 4 6.3 5.6 2.9 1.2 3.8 1.1 4.4 1 1-.3 2.2-1 2.5-1.9z"/><path stroke-linejoin="round" stroke-linecap="round" stroke-miterlimit="10" stroke-width="2" d="M16 1C7.7 1 1 2.9 1 14c0 7.2 2.8 10.5 7 12v4.4c0 .6.7.9 1.2.5l3.9-3.9H16c8.3 0 15-1.9 15-13S24.3 1 16 1z"/><path stroke-linejoin="round" stroke-linecap="round" stroke-miterlimit="10" stroke-width="2" d="M15.5 11.2c1.3 0 2.3 1 2.3 2.3M15.5 5c4.7 0 8.5 3.8 8.5 8.5M15.5 8.1c3 0 5.4 2.4 5.4 5.4"/></symbol><symbol id="icon-twitter" viewBox="0 0 32 32"><path d="M32 7.075a12.941 12.941 0 0 1-3.769 1.031 6.601 6.601 0 0 0 2.887-3.631 13.21 13.21 0 0 1-4.169 1.594A6.565 6.565 0 0 0 22.155 4a6.563 6.563 0 0 0-6.563 6.563c0 .512.056 1.012.169 1.494A18.635 18.635 0 0 1 2.23 5.195a6.56 6.56 0 0 0-.887 3.3 6.557 6.557 0 0 0 2.919 5.463 6.565 6.565 0 0 1-2.975-.819v.081a6.565 6.565 0 0 0 5.269 6.437 6.574 6.574 0 0 1-2.968.112 6.588 6.588 0 0 0 6.131 4.563 13.17 13.17 0 0 1-9.725 2.719 18.568 18.568 0 0 0 10.069 2.95c12.075 0 18.681-10.006 18.681-18.681 0-.287-.006-.569-.019-.85A13.216 13.216 0 0 0 32 7.076z"/></symbol><symbol id="icon-reddit" viewBox="0 0 32 32"><path d="M8 20a2 2 0 1 1 3.999-.001A2 2 0 0 1 8 20zm12 0a2 2 0 1 1 3.999-.001A2 2 0 0 1 20 20zm.097 4.274a1.188 1.188 0 0 1 1.47 1.866C20.133 27.27 17.948 28 16 28s-4.133-.73-5.567-1.86a1.188 1.188 0 0 1 1.47-1.866c.826.651 2.46 1.351 4.097 1.351s3.271-.7 4.097-1.351zM32 16a4 4 0 0 0-7.495-1.943c-2.056-1.125-4.561-1.851-7.29-2.019l2.387-5.36 4.569 1.319a3 3 0 1 0 .188-2.417l-5.091-1.47a1.187 1.187 0 0 0-1.414.658l-3.243 7.282c-2.661.187-5.102.907-7.114 2.007a4 4 0 1 0-5.109 5.603 7.334 7.334 0 0 0-.387 2.341c0 5.523 6.268 10 14 10s14-4.477 14-10a7.3 7.3 0 0 0-.387-2.34 4 4 0 0 0 2.387-3.66zM27 5.875a1.125 1.125 0 1 1 0 2.25 1.125 1.125 0 0 1 0-2.25zM2 16c0-1.103.897-2 2-2 .797 0 1.487.469 1.808 1.145-1.045.793-1.911 1.707-2.552 2.711A2.003 2.003 0 0 1 2 16zm14 13.625c-6.42 0-11.625-3.414-11.625-7.625S9.58 14.375 16 14.375 27.625 17.789 27.625 22 22.42 29.625 16 29.625zm12.744-11.769c-.641-1.003-1.507-1.918-2.552-2.711A2.003 2.003 0 0 1 28 14c1.103 0 2 .897 2 2 0 .84-.52 1.56-1.256 1.856z"/></symbol><symbol id="icon-home3" viewBox="0 0 32 32"><path d="m32 19-6-6V4h-4v5l-6-6L0 19v1h4v10h10v-6h4v6h10V20h4z"/></symbol></defs></svg>