<svg aria-hidden="true" style="position: absolute; width: 0; height: 0; overflow: hidden;" version="1.1" xmlns="http://www.w3.org/2000/svg" xmlns:xlink="http://www.w3.org/1999/xlink">
<defs>
<symbol id="icon-facebook-svgrepo-com" viewBox="0 0 32 32">
<path d="M26.667 1.333h-21.333c-2.209 0-4 1.791-4 4v21.333c0 2.209 1.791 4 4 4h21.333c2.209 0 4-1.791 4-4v-21.333c0-2.209-1.791-4-4-4zM26.667 4c0.736 0 1.333 0.597 1.333 1.333v21.333c0 0.736-0.597 1.333-1.333 1.333h-6.667v-9.333h2.768c0.574 0 1.083-0.367 1.265-0.912l0.591-1.772c0.216-0.648-0.266-1.316-0.949-1.316h-3.675v-2.667c0-0.667 0.667-1.333 1.333-1.333h2.667c0.736 0 1.333-0.597 1.333-1.333v-0.915c0-0.431-0.275-0.817-0.692-0.927-1.748-0.461-3.308-0.461-3.308-0.461-3.333 0-5.333 2.303-5.333 4.303v3.333h-2.667c-0.736 0-1.333 0.597-1.333 1.333v1.333c0 0.736 0.597 1.333 1.333 1.333h2.667v9.333h-10.667c-0.736 0-1.333-0.597-1.333-1.333v-21.333c0-0.736 0.597-1.333 1.333-1.333h21.333z"></path>
</symbol>
<symbol id="icon-instagram-svgrepo-com" viewBox="0 0 32 32">
<path d="M16 24c-4.418 0-8-3.582-8-8s3.582-8 8-8c4.418 0 8 3.582 8 8s-3.582 8-8 8zM16 21.333c2.945 0 5.333-2.388 5.333-5.333s-2.388-5.333-5.333-5.333c-2.946 0-5.333 2.388-5.333 5.333s2.388 5.333 5.333 5.333z"></path>
<path d="M24 6.667c-0.736 0-1.333 0.597-1.333 1.333s0.597 1.333 1.333 1.333c0.736 0 1.333-0.597 1.333-1.333s-0.597-1.333-1.333-1.333z"></path>
<path d="M2.205 5.701c0.767-1.505 1.991-2.729 3.496-3.496 1.711-0.872 3.951-0.872 8.432-0.872h3.733c4.48 0 6.721 0 8.432 0.872 1.505 0.767 2.729 1.991 3.496 3.496 0.872 1.711 0.872 3.951 0.872 8.432v3.733c0 4.48 0 6.721-0.872 8.432-0.767 1.505-1.991 2.729-3.496 3.496-1.711 0.872-3.951 0.872-8.432 0.872h-3.733c-4.48 0-6.721 0-8.432-0.872-1.505-0.767-2.729-1.991-3.496-3.496-0.872-1.711-0.872-3.951-0.872-8.432v-3.733c0-4.48 0-6.721 0.872-8.432zM17.867 4h-3.733c-2.284 0-3.837 0.002-5.037 0.1-1.169 0.096-1.767 0.269-2.184 0.481-1.004 0.511-1.819 1.327-2.331 2.331-0.213 0.417-0.386 1.015-0.481 2.184-0.098 1.2-0.1 2.753-0.1 5.037v3.733c0 2.284 0.002 3.837 0.1 5.037 0.096 1.169 0.269 1.767 0.481 2.184 0.511 1.003 1.327 1.819 2.331 2.331 0.417 0.213 1.015 0.386 2.184 0.481 1.2 0.098 2.753 0.1 5.037 0.1h3.733c2.284 0 3.837-0.002 5.037-0.1 1.169-0.095 1.767-0.269 2.184-0.481 1.003-0.511 1.819-1.327 2.331-2.331 0.213-0.417 0.386-1.015 0.481-2.184 0.098-1.2 0.1-2.753 0.1-5.037v-3.733c0-2.284-0.002-3.837-0.1-5.037-0.095-1.169-0.269-1.767-0.481-2.184-0.511-1.004-1.327-1.819-2.331-2.331-0.417-0.213-1.015-0.386-2.184-0.481-1.2-0.098-2.753-0.1-5.037-0.1z"></path>
</symbol>
<symbol id="icon-snapchat-snap-chat-svgrepo-com" viewBox="0 0 32 32">
<path stroke-linejoin="round" stroke-linecap="round" stroke-miterlimit="10" stroke-width="2" d="M23 31h-14c-4.4 0-8-3.6-8-8v-14c0-4.4 3.6-8 8-8h14c4.4 0 8 3.6 8 8v14c0 4.4-3.6 8-8 8z"></path>
<path stroke-linejoin="round" stroke-linecap="round" stroke-miterlimit="10" stroke-width="2" d="M16 5c-1.1 0-1.7 0.1-2.8 0.6-1.8 0.8-2.9 2.3-3.1 4.3-0.1 1.1 0 2.3 0 3.4 0 0.4-0.2 0.6-0.6 0.4-0.2-0.1-0.4-0.2-0.5-0.2-0.4-0.1-0.8-0.2-1.2-0.3-0.3 0-0.6 0.1-0.7 0.4s-0.1 0.6 0.1 0.8c0.2 0.2 0.4 0.4 0.6 0.5 0.5 0.4 1 0.7 1.5 1 0.4 0.3 0.5 0.7 0.4 1.2-0.2 1-0.7 1.9-1.3 2.6-0.9 1-1.9 1.7-3.1 2.3-0.4 0.2-0.4 0.4 0 0.6 0.5 0.2 1 0.4 1.5 0.6s1.1 0.2 1.2 0.9c0.1 0.8 0.3 0.7 0.9 0.8 0.2 0 0.3 0 0.5 0 1.1 0 2.2 0.3 3.2 0.9 0.6 0.4 1.2 0.7 1.8 0.9 1.6 0.5 3.2 0.3 4.6-0.7 1.1-0.8 2.4-1.1 3.7-1.1 0.2 0 0.4-0.1 0.7-0.1 0.4 0 0.5-0.2 0.6-0.6 0-0.5 0.3-0.7 0.7-0.9 0.7-0.2 1.3-0.5 2-0.8 0.1 0 0.3-0.2 0.3-0.3s-0.2-0.2-0.3-0.3c-0.6-0.4-1.3-0.7-1.9-1.2-1.2-0.9-2.1-2.1-2.6-3.5-0.2-0.6-0.1-0.9 0.4-1.3 0.2-0.2 0.5-0.3 0.7-0.5 0.5-0.3 0.9-0.7 1.4-1 0.2-0.2 0.3-0.5 0.2-0.8s-0.4-0.4-0.6-0.4c-0.3 0-0.5 0.1-0.8 0.1-0.4 0.1-0.7 0.3-1 0.4s-0.6-0.1-0.5-0.4c0.1-1.2 0.1-2.4 0-3.5s-0.6-2.1-1.3-2.9c-1.4-1.3-2.9-1.9-4.7-1.9z"></path>
</symbol>
<symbol id="icon-tumblr-svgrepo-com" viewBox="0 0 32 32">
<path stroke-linejoin="round" stroke-linecap="round" stroke-miterlimit="10" stroke-width="2" d="M23 31h-14c-4.4 0-8-3.6-8-8v-14c0-4.4 3.6-8 8-8h14c4.4 0 8 3.6 8 8v14c0 4.4-3.6 8-8 8z"></path>
<path stroke-linejoin="round" stroke-linecap="round" stroke-miterlimit="10" stroke-width="2" d="M21.9 25.7l-1-3.1c-0.4 0.2-1.2 0.4-1.7 0.4-1.7 0-2.2-1-2.2-2v-7h4v-4h-4v-5h-3c-0.1 0-0.1 0-0.2 0.2-0.2 1.7-1.5 4.7-4.8 5.9v2.9h3v7c0 2.5 1.5 6.1 6.2 6 1.6 0 3.3-0.7 3.7-1.3v0z"></path>
</symbol>
<symbol id="icon-viber-chat-app-svgrepo-com" viewBox="0 0 32 32">
<path stroke-linejoin="round" stroke-linecap="round" stroke-miterlimit="10" stroke-width="2" d="M21.7 20.1c0.3-0.9 0.3-1.6 0.2-1.8s-0.3-0.2-0.7-0.4c-0.4-0.2-2.2-1.1-2.5-1.2s-0.7-0.1-0.9 0.3c-0.4 0.5-0.7 1-1 1.3-0.2 0.2-0.6 0.3-0.9 0.1-0.4-0.2-1.6-0.6-3-1.8-1.1-1-1.8-2.2-2.1-2.6-0.2-0.4 0-0.6 0.2-0.8s0.4-0.4 0.6-0.6c0.2-0.2 0.3-0.3 0.4-0.6 0.1-0.2 0-0.5-0.1-0.7s-0.8-2-1.1-2.7c-0.2-0.5-0.4-0.5-0.8-0.5-0.1-0.1-0.3-0.1-0.4-0.1-0.5 0-1 0.1-1.3 0.5-0.4 0.4-1.3 1.3-1.3 3.1s1.3 3.6 1.5 3.8c0.2 0.2 2.6 4 6.3 5.6 2.9 1.2 3.8 1.1 4.4 1 1-0.3 2.2-1 2.5-1.9v0z"></path>
<path stroke-linejoin="round" stroke-linecap="round" stroke-miterlimit="10" stroke-width="2" d="M16 1c-8.3 0-15 1.9-15 13 0 7.2 2.8 10.5 7 12v4.4c0 0.6 0.7 0.9 1.2 0.5l3.9-3.9c0.9 0 1.9 0 2.9 0 8.3 0 15-1.9 15-13s-6.7-13-15-13z"></path>
<path stroke-linejoin="round" stroke-linecap="round" stroke-miterlimit="10" stroke-width="2" d="M15.5 11.2c1.3 0 2.3 1 2.3 2.3"></path>
<path stroke-linejoin="round" stroke-linecap="round" stroke-miterlimit="10" stroke-width="2" d="M15.5 5c4.7 0 8.5 3.8 8.5 8.5"></path>
<path stroke-linejoin="round" stroke-linecap="round" stroke-miterlimit="10" stroke-width="2" d="M15.5 8.1c3 0 5.4 2.4 5.4 5.4"></path>
</symbol>
<symbol id="icon-twitter" viewBox="0 0 32 32">
<path d="M32 7.075c-1.175 0.525-2.444 0.875-3.769 1.031 1.356-0.813 2.394-2.1 2.887-3.631-1.269 0.75-2.675 1.3-4.169 1.594-1.2-1.275-2.906-2.069-4.794-2.069-3.625 0-6.563 2.938-6.563 6.563 0 0.512 0.056 1.012 0.169 1.494-5.456-0.275-10.294-2.888-13.531-6.862-0.563 0.969-0.887 2.1-0.887 3.3 0 2.275 1.156 4.287 2.919 5.463-1.075-0.031-2.087-0.331-2.975-0.819 0 0.025 0 0.056 0 0.081 0 3.181 2.263 5.838 5.269 6.437-0.55 0.15-1.131 0.231-1.731 0.231-0.425 0-0.831-0.044-1.237-0.119 0.838 2.606 3.263 4.506 6.131 4.563-2.25 1.762-5.075 2.813-8.156 2.813-0.531 0-1.050-0.031-1.569-0.094 2.913 1.869 6.362 2.95 10.069 2.95 12.075 0 18.681-10.006 18.681-18.681 0-0.287-0.006-0.569-0.019-0.85 1.281-0.919 2.394-2.075 3.275-3.394z"></path>
</symbol>
<symbol id="icon-reddit" viewBox="0 0 32 32">
<path d="M8 20c0-1.105 0.895-2 2-2s2 0.895 2 2c0 1.105-0.895 2-2 2s-2-0.895-2-2zM20 20c0-1.105 0.895-2 2-2s2 0.895 2 2c0 1.105-0.895 2-2 2s-2-0.895-2-2zM20.097 24.274c0.515-0.406 1.262-0.317 1.668 0.198s0.317 1.262-0.198 1.668c-1.434 1.13-3.619 1.86-5.567 1.86s-4.133-0.73-5.567-1.86c-0.515-0.406-0.604-1.153-0.198-1.668s1.153-0.604 1.668-0.198c0.826 0.651 2.46 1.351 4.097 1.351s3.271-0.7 4.097-1.351zM32 16c0-2.209-1.791-4-4-4-1.504 0-2.812 0.83-3.495 2.057-2.056-1.125-4.561-1.851-7.29-2.019l2.387-5.36 4.569 1.319c0.411 1.167 1.522 2.004 2.83 2.004 1.657 0 3-1.343 3-3s-1.343-3-3-3c-1.142 0-2.136 0.639-2.642 1.579l-5.091-1.47c-0.57-0.164-1.173 0.116-1.414 0.658l-3.243 7.282c-2.661 0.187-5.102 0.907-7.114 2.007-0.683-1.227-1.993-2.056-3.496-2.056-2.209 0-4 1.791-4 4 0 1.635 0.981 3.039 2.387 3.659-0.252 0.751-0.387 1.535-0.387 2.341 0 5.523 6.268 10 14 10s14-4.477 14-10c0-0.806-0.134-1.589-0.387-2.34 1.405-0.62 2.387-2.025 2.387-3.66zM27 5.875c0.621 0 1.125 0.504 1.125 1.125s-0.504 1.125-1.125 1.125-1.125-0.504-1.125-1.125 0.504-1.125 1.125-1.125zM2 16c0-1.103 0.897-2 2-2 0.797 0 1.487 0.469 1.808 1.145-1.045 0.793-1.911 1.707-2.552 2.711-0.735-0.296-1.256-1.016-1.256-1.856zM16 29.625c-6.42 0-11.625-3.414-11.625-7.625s5.205-7.625 11.625-7.625c6.42 0 11.625 3.414 11.625 7.625s-5.205 7.625-11.625 7.625zM28.744 17.856c-0.641-1.003-1.507-1.918-2.552-2.711 0.321-0.676 1.011-1.145 1.808-1.145 1.103 0 2 0.897 2 2 0 0.84-0.52 1.56-1.256 1.856z"></path>
</symbol>

<symbol id="icon-home3" viewBox="0 0 32 32">
<path d="M32 19l-6-6v-9h-4v5l-6-6-16 16v1h4v10h10v-6h4v6h10v-10h4z"></path>
</symbol>
</defs>
</svg>
